<?xml version="1.0" encoding="UTF-8" standalone="no"?>
<!-- Created with Inkscape (http://www.inkscape.org/) -->

<svg
   width="154.27832mm"
   height="135.47104mm"
   viewBox="0 0 154.27832 135.47104"
   version="1.1"
   id="svg5"
   xml:space="preserve"
   xmlns:inkscape="http://www.inkscape.org/namespaces/inkscape"
   xmlns:sodipodi="http://sodipodi.sourceforge.net/DTD/sodipodi-0.dtd"
   xmlns="http://www.w3.org/2000/svg"
   xmlns:svg="http://www.w3.org/2000/svg"><sodipodi:namedview
     id="namedview7"
     pagecolor="#ffffff"
     bordercolor="#000000"
     borderopacity="0.25"
     inkscape:showpageshadow="2"
     inkscape:pageopacity="0.0"
     inkscape:pagecheckerboard="0"
     inkscape:deskcolor="#d1d1d1"
     inkscape:document-units="mm"
     showgrid="false" /><defs
     id="defs2"><radialGradient
       id="SVGID_00000141417730001591069440000008148460246483815612_"
       cx="-7661.5859"
       cy="9142.8623"
       r="526.88751"
       gradientTransform="matrix(0.25513998,0,0,-0.25513998,2115.2865,2465.9036)"
       gradientUnits="userSpaceOnUse">
		<stop
   offset="0.129"
   style="stop-color:#FFBD4F"
   id="stop6187" />
		<stop
   offset="0.186"
   style="stop-color:#FFAC31"
   id="stop6189" />
		<stop
   offset="0.247"
   style="stop-color:#FF9D17"
   id="stop6191" />
		<stop
   offset="0.283"
   style="stop-color:#FF980E"
   id="stop6193" />
		<stop
   offset="0.403"
   style="stop-color:#FF563B"
   id="stop6195" />
		<stop
   offset="0.467"
   style="stop-color:#FF3750"
   id="stop6197" />
		<stop
   offset="0.71"
   style="stop-color:#F5156C"
   id="stop6199" />
		<stop
   offset="0.782"
   style="stop-color:#EB0878"
   id="stop6201" />
		<stop
   offset="0.86"
   style="stop-color:#E50080"
   id="stop6203" />
	</radialGradient><radialGradient
       id="SVGID_00000183935640199567848770000006584079666962235295_"
       cx="-7860.8018"
       cy="8923.7246"
       r="526.88751"
       gradientTransform="matrix(0.25513998,0,0,-0.25513998,2115.2865,2465.9036)"
       gradientUnits="userSpaceOnUse">
		<stop
   offset="0.3"
   style="stop-color:#960E18"
   id="stop6208" />
		<stop
   offset="0.351"
   style="stop-color:#B11927;stop-opacity:0.74"
   id="stop6210" />
		<stop
   offset="0.435"
   style="stop-color:#DB293D;stop-opacity:0.343"
   id="stop6212" />
		<stop
   offset="0.497"
   style="stop-color:#F5334B;stop-opacity:0.094"
   id="stop6214" />
		<stop
   offset="0.53"
   style="stop-color:#FF3750;stop-opacity:0"
   id="stop6216" />
	</radialGradient><radialGradient
       id="SVGID_00000036225464796486094700000009014996656334800779_"
       cx="-7794.3965"
       cy="9262.3916"
       r="381.66739"
       gradientTransform="matrix(0.25513998,0,0,-0.25513998,2115.2865,2465.9036)"
       gradientUnits="userSpaceOnUse">
		<stop
   offset="0.132"
   style="stop-color:#FFF44F"
   id="stop6221" />
		<stop
   offset="0.252"
   style="stop-color:#FFDC3E"
   id="stop6223" />
		<stop
   offset="0.506"
   style="stop-color:#FF9D12"
   id="stop6225" />
		<stop
   offset="0.526"
   style="stop-color:#FF980E"
   id="stop6227" />
	</radialGradient><radialGradient
       id="SVGID_00000133493738353208372700000016723141896410133387_"
       cx="-7721.3506"
       cy="9282.3135"
       r="770.11652"
       gradientTransform="matrix(0.25513998,0,0,-0.25513998,2115.2865,2465.9036)"
       gradientUnits="userSpaceOnUse">
		<stop
   offset="0.113"
   style="stop-color:#FFF44F"
   id="stop6269" />
		<stop
   offset="0.456"
   style="stop-color:#FF980E"
   id="stop6271" />
		<stop
   offset="0.622"
   style="stop-color:#FF5634"
   id="stop6273" />
		<stop
   offset="0.716"
   style="stop-color:#FF3647"
   id="stop6275" />
		<stop
   offset="0.904"
   style="stop-color:#E31587"
   id="stop6277" />
	</radialGradient><radialGradient
       id="SVGID_00000106104975494002704980000013833834732933129128_"
       cx="-8327.084"
       cy="10217.767"
       r="564.05652"
       gradientTransform="matrix(0.0267871,0.25386688,0.16659446,-0.01761557,-1350.5794,2402.5388)"
       gradientUnits="userSpaceOnUse">
		<stop
   offset="0"
   style="stop-color:#FFF44F"
   id="stop6282" />
		<stop
   offset="0.06"
   style="stop-color:#FFE847"
   id="stop6284" />
		<stop
   offset="0.168"
   style="stop-color:#FFC830"
   id="stop6286" />
		<stop
   offset="0.304"
   style="stop-color:#FF980E"
   id="stop6288" />
		<stop
   offset="0.356"
   style="stop-color:#FF8B16"
   id="stop6290" />
		<stop
   offset="0.455"
   style="stop-color:#FF672A"
   id="stop6292" />
		<stop
   offset="0.57"
   style="stop-color:#FF3647"
   id="stop6294" />
		<stop
   offset="0.737"
   style="stop-color:#E31587"
   id="stop6296" />
	</radialGradient><radialGradient
       id="SVGID_00000114037186251326502850000007530896861815531178_"
       cx="-7867.4419"
       cy="9096.3789"
       r="480.7196"
       gradientTransform="matrix(0.25513998,0,0,-0.25513998,2115.2865,2465.9036)"
       gradientUnits="userSpaceOnUse">
		<stop
   offset="0.137"
   style="stop-color:#FFF44F"
   id="stop6301" />
		<stop
   offset="0.48"
   style="stop-color:#FF980E"
   id="stop6303" />
		<stop
   offset="0.592"
   style="stop-color:#FF5634"
   id="stop6305" />
		<stop
   offset="0.655"
   style="stop-color:#FF3647"
   id="stop6307" />
		<stop
   offset="0.904"
   style="stop-color:#E31587"
   id="stop6309" />
	</radialGradient><radialGradient
       id="SVGID_00000080888402069550001830000017912991855329685695_"
       cx="-7741.2725"
       cy="9069.8164"
       r="526.17023"
       gradientTransform="matrix(0.25513998,0,0,-0.25513998,2115.2865,2465.9036)"
       gradientUnits="userSpaceOnUse">
		<stop
   offset="0.094"
   style="stop-color:#FFF44F"
   id="stop6314" />
		<stop
   offset="0.231"
   style="stop-color:#FFE141"
   id="stop6316" />
		<stop
   offset="0.509"
   style="stop-color:#FFAF1E"
   id="stop6318" />
		<stop
   offset="0.626"
   style="stop-color:#FF980E"
   id="stop6320" />
	</radialGradient><linearGradient
       id="SVGID_00000181783079445436130310000015728317175284106670_"
       gradientUnits="userSpaceOnUse"
       x1="471.34451"
       y1="442.22321"
       x2="114.3913"
       y2="85.204803"
       gradientTransform="matrix(0.25513998,0,0,-0.25513998,43.16992,251.2245)">
		<stop
   offset="0.167"
   style="stop-color:#FFF44F;stop-opacity:0.8"
   id="stop6325" />
		<stop
   offset="0.266"
   style="stop-color:#FFF44F;stop-opacity:0.634"
   id="stop6327" />
		<stop
   offset="0.489"
   style="stop-color:#FFF44F;stop-opacity:0.217"
   id="stop6329" />
		<stop
   offset="0.6"
   style="stop-color:#FFF44F;stop-opacity:0"
   id="stop6331" />
	</linearGradient></defs><g
     inkscape:label="Layer 1"
     inkscape:groupmode="layer"
     id="layer1"
     transform="translate(-23.928475,-117.95098)"><path
       style="fill:url(#SVGID_00000141417730001591069440000008148460246483815612_);stroke-width:0.259817"
       d="m 173.45117,163.43969 c -2.85278,-6.86436 -8.6415,-14.27693 -13.1727,-16.62047 3.23212,6.25898 5.47434,12.98044 6.64871,19.92534 v 0.0623 l 0.013,0.0702 c 5.06123,14.48478 4.33114,30.36478 -2.04216,44.32213 -7.52689,16.14501 -25.73744,32.69533 -54.24972,31.88211 -30.80127,-0.87299 -57.944319,-23.73426 -63.010744,-53.67293 -0.922349,-4.72087 0,-7.11638 0.465072,-10.95387 -0.633953,2.98009 -0.987304,6.01475 -1.054856,9.0598 v 0.33777 c 0.06495,36.26781 29.517773,65.6167 65.785588,65.55174 31.89249,-0.052 59.13687,-23.01975 64.58523,-54.44458 0.10912,-0.847 0.20005,-1.68621 0.29878,-2.54101 1.35365,-11.17991 -0.11172,-22.51831 -4.25839,-32.98632 z"
       id="path6206" /><path
       style="fill:url(#SVGID_00000183935640199567848770000006584079666962235295_);stroke-width:0.259817"
       d="m 173.45117,163.43969 c -2.85278,-6.86436 -8.6415,-14.27693 -13.1727,-16.62047 3.23212,6.25898 5.47434,12.98044 6.64871,19.92534 v 0.0623 l 0.013,0.0702 c 5.06123,14.48478 4.33114,30.36478 -2.04216,44.32213 -7.52689,16.14501 -25.73744,32.69533 -54.24972,31.88211 -30.80127,-0.87299 -57.944319,-23.73426 -63.010744,-53.67293 -0.922349,-4.72087 0,-7.11638 0.465072,-10.95387 -0.633953,2.98009 -0.987304,6.01475 -1.054856,9.0598 v 0.33777 c 0.06495,36.26781 29.517773,65.6167 65.785588,65.55174 31.89249,-0.052 59.13687,-23.01975 64.58523,-54.44458 0.10912,-0.847 0.20005,-1.68621 0.29878,-2.54101 1.35365,-11.17991 -0.11172,-22.51831 -4.25839,-32.98632 z"
       id="path6219" /><path
       style="fill:url(#SVGID_00000036225464796486094700000009014996656334800779_);stroke-width:0.259817"
       d="m 141.5327,171.14845 c 0.14289,0.0987 0.2754,0.20006 0.40791,0.29879 -1.64984,-2.92554 -3.70239,-5.60165 -6.1005,-7.95559 -20.41379,-20.41379 -5.34702,-44.25197 -2.80862,-45.47051 l 0.026,-0.0364 c -16.49317,9.65739 -22.09222,27.53018 -22.60146,36.47567 0.76646,-0.052 1.52513,-0.11692 2.30717,-0.11692 11.9126,0.0234 22.89505,6.43826 28.76691,16.80234 v 0.003 z"
       id="path6230" /><path
       style="fill:url(#SVGID_00000133493738353208372700000016723141896410133387_);stroke-width:0.259817"
       d="m 47.627153,189.41097 c 5.066425,29.93607 32.206876,52.81033 63.008147,53.67293 28.51488,0.80543 46.72803,-15.74749 54.24972,-31.88471 6.3733,-13.95735 7.10599,-29.83735 2.04216,-44.32213 v -0.0624 c 0,-0.0494 -0.0104,-0.0779 0,-0.0624 l 0.013,0.10913 c 2.33055,15.20966 -5.40679,29.93607 -17.50125,39.91563 l -0.0364,0.0857 c -23.56797,19.19526 -46.11746,11.57743 -50.674642,8.47003 -0.319575,-0.1533 -0.636551,-0.31178 -0.956126,-0.47547 -13.739106,-6.56557 -19.4161,-19.07834 -18.194962,-29.81916 -6.661699,0.0987 -12.759597,-3.73616 -15.555224,-9.7847 7.334625,-4.49223 16.472377,-4.85857 24.142166,-0.96911 7.776313,3.52831 16.623068,3.87646 24.651408,0.96911 -0.026,-0.53262 -11.45272,-5.08201 -15.908577,-9.47031 -2.379921,-2.34615 -3.510124,-3.47635 -4.513016,-4.32595 -0.540419,-0.45728 -1.106819,-0.88598 -1.694005,-1.2835 -0.389725,-0.26501 -0.828815,-0.55341 -1.356243,-0.89896 -4.788421,-3.1152 -14.313301,-2.94372 -14.630277,-2.93333 h -0.03118 c -2.603363,-3.29967 -2.418893,-14.1756 -2.270798,-16.4464 -0.769057,0.30918 -1.504338,0.69891 -2.192853,1.16398 -2.296779,1.63944 -4.445463,3.47895 -6.417472,5.49772 -2.255208,2.2734 -4.318153,4.73126 -6.162851,7.34762 v 0.0104 -0.013 c -4.222021,5.98358 -7.215109,12.74401 -8.810384,19.89156 -0.03118,0.13511 -2.364332,10.33291 -1.215942,15.62278 z"
       id="path6280" /><path
       style="fill:url(#SVGID_00000106104975494002704980000013833834732933129128_);stroke-width:0.259817"
       d="m 135.84011,163.48906 c 2.39811,2.35393 4.45066,5.03524 6.1005,7.96338 0.36114,0.2728 0.6989,0.54301 0.9847,0.80543 14.8875,13.72352 7.0878,33.12143 6.50581,34.49586 12.09447,-9.96397 19.82142,-24.70077 17.50125,-39.91564 -7.42815,-18.51713 -20.02667,-25.98946 -30.29202,-42.2384 -0.51964,-0.82102 -1.03927,-1.64464 -1.54591,-2.51502 -0.291,-0.49625 -0.52223,-0.94314 -0.72229,-1.35624 -0.4261,-0.82622 -0.75607,-1.69921 -0.97951,-2.60077 0,-0.0857 -0.0624,-0.15849 -0.1481,-0.16888 -0.0416,-0.0104 -0.0831,-0.0104 -0.12471,0 -0.008,0 -0.0208,0.0156 -0.0312,0.0182 -0.0104,0.003 -0.0312,0.0182 -0.0468,0.026 -2.53841,1.20555 -17.60258,25.05672 2.81121,45.45753 z"
       id="path6299" /><path
       style="fill:url(#SVGID_00000114037186251326502850000007530896861815531178_);stroke-width:0.259817"
       d="m 142.92012,172.26566 c -0.2858,-0.26241 -0.62356,-0.53262 -0.98471,-0.80543 -0.1351,-0.0987 -0.26501,-0.20006 -0.40791,-0.29879 -4.61954,-3.19834 -10.26016,-4.57017 -15.83323,-3.84529 23.61734,11.80867 17.28041,52.46998 -15.4487,50.94486 -2.91514,-0.11952 -5.79391,-0.67552 -8.54277,-1.64724 -0.64175,-0.24163 -1.28609,-0.50404 -1.927841,-0.78984 -0.371538,-0.16888 -0.743076,-0.33776 -1.106819,-0.52743 l 0.04677,0.0286 c 4.56498,3.1152 27.10667,10.72783 50.67464,-8.47002 l 0.0364,-0.0857 c 0.58718,-1.37183 8.38688,-20.77235 -6.50581,-34.49586 z"
       id="path6312" /><path
       style="fill:url(#SVGID_00000080888402069550001830000017912991855329685695_);stroke-width:0.259817"
       d="m 83.198655,193.78368 c 40.675045,-17.40112 3.921157,-32.10758 -19.195257,-18.5613 2.795628,6.04853 8.890927,9.88342 15.555225,9.78469 -1.215942,10.73563 4.458454,23.2458 18.194962,29.81916 0.306584,0.1481 0.59498,0.30659 0.909359,0.44689 -8.017943,-4.14148 -14.64067,-11.97755 -15.466887,-21.48165 12.777619,7.12262 0.0024,-0.007 0.0026,-0.008 z"
       id="path6323"
       sodipodi:nodetypes="ccccccc" /><path
       style="fill:url(#SVGID_00000181783079445436130310000015728317175284106670_);stroke-width:0.259817"
       d="m 173.45117,163.43969 c -2.85278,-6.86436 -8.6415,-14.27693 -13.1727,-16.62047 3.23212,6.25898 5.47434,12.98044 6.64871,19.92534 l 0.013,0.10912 c -7.42296,-18.50154 -20.00848,-25.97387 -30.29203,-42.22021 -0.51963,-0.82102 -1.03926,-1.64464 -1.54591,-2.51502 -0.29099,-0.49625 -0.52223,-0.94314 -0.72229,-1.35625 -0.4261,-0.82621 -0.75606,-1.6992 -0.97951,-2.60076 0,-0.0857 -0.0624,-0.15849 -0.14809,-0.16888 -0.0416,-0.0104 -0.0831,-0.0104 -0.12471,0 -0.008,0 -0.0208,0.0156 -0.0312,0.0182 -0.0104,0.003 -0.0312,0.0182 -0.0468,0.026 l 0.026,-0.0442 c -16.49316,9.65738 -22.09221,27.53017 -22.60145,36.47566 0.76646,-0.052 1.52512,-0.11692 2.30717,-0.11692 11.9126,0.0234 22.89505,6.43826 28.7669,16.80235 -4.61954,-3.19835 -10.26016,-4.57018 -15.83322,-3.84529 25.91329,64.14297 -185.795802,66.35709 -12.88951,86.11366 31.8951,-0.0572 59.13688,-23.02236 64.58783,-54.44718 0.10912,-0.84701 0.20006,-1.68621 0.29879,-2.54101 1.35364,-11.17991 -0.11172,-22.51831 -4.2584,-32.98633 z m -6.5136,3.37242 0.013,0.0702 z"
       id="path6334"
       sodipodi:nodetypes="ccccccccccccccccccccccccc" /><path
       style="line-height:normal;text-indent:0;text-align:start;text-decoration-line:none;text-decoration-style:solid;text-decoration-color:#000000;text-transform:none;isolation:auto;mix-blend-mode:normal;stroke-width:0.264583"
       d="m 126.14721,186.90363 c -0.0662,0 -0.13209,0.0267 -0.185,0.0796 -0.10584,0.10583 -0.10584,0.26417 0,0.37 l 0.74052,0.74104 -0.74052,0.74104 c -0.10584,0.10583 -0.10584,0.26417 0,0.37 0.0529,0.0529 0.13208,0.0796 0.185,0.0796 0.0529,0 0.13208,-0.0267 0.185,-0.0796 l 0.74104,-0.74052 0.74104,0.74052 c 0.0529,0.0529 0.13208,0.0796 0.185,0.0796 0.0529,0 0.13209,-0.0267 0.185,-0.0796 0.10584,-0.10583 0.10584,-0.26417 0,-0.37 l -0.74052,-0.74104 0.74052,-0.74104 c 0.10584,-0.10583 0.10584,-0.26417 0,-0.37 -0.10583,-0.10584 -0.26417,-0.10584 -0.37,0 l -0.74104,0.74052 -0.74104,-0.74053 c -0.0529,-0.0529 -0.11886,-0.0796 -0.185,-0.0796 z"
       id="path5831" /><g
       id="g6857"
       transform="translate(-12.769722,-3.026849)"
       style="stroke-width:3.9;stroke-dasharray:none"><rect
         style="fill:#ffffff;stroke:#000000;stroke-width:3.9;stroke-dasharray:none"
         id="rect6725"
         width="31.278145"
         height="84.644341"
         x="38.648197"
         y="139.5273"
         ry="7.3917303" /><rect
         style="fill:#ffffff;stroke:#000000;stroke-width:3.9;stroke-dasharray:none"
         id="rect6833"
         width="31.278145"
         height="84.644341"
         x="70.296661"
         y="139.5273"
         ry="7.3917303" /><rect
         style="fill:#ffffff;stroke:#000000;stroke-width:3.9;stroke-dasharray:none"
         id="rect6835"
         width="31.278145"
         height="84.644341"
         x="102.76739"
         y="139.5273"
         ry="7.3917303" /><rect
         style="fill:#ffffff;stroke:#000000;stroke-width:3.9;stroke-dasharray:none"
         id="rect6837"
         width="120.53681"
         height="70.544716"
         x="38.648197"
         y="155.64081"
         ry="9.7473879" /></g></g><style
     type="text/css"
     id="style6150">
	.st0{fill:url(#SVGID_1_);}
	.st1{fill:url(#SVGID_00000025427279580851416970000017990324140057233338_);}
	.st2{fill:url(#SVGID_00000103248290768659526440000018124178204257797771_);}
	.st3{fill:url(#SVGID_00000124853115375503767600000013524495554542452907_);}
	.st4{fill:url(#SVGID_00000121962003845428720160000005774362101757540484_);}
	.st5{fill:url(#SVGID_00000158713412606291971620000001009503014731967641_);}
	.st6{fill:url(#SVGID_00000044885064260120081490000003386537743259123369_);}
	.st7{fill:url(#SVGID_00000052081329411537322350000017204806064334822319_);}
	.st8{fill:url(#SVGID_00000090270991590354092490000014048482846288527793_);}
	.st9{fill:url(#SVGID_00000020360417754260741120000017644890651721509761_);}
	.st10{fill:url(#SVGID_00000145738244701609100790000003104657445221950102_);}
	.st11{fill:url(#SVGID_00000142136394108828551470000004731527293856380088_);}
</style></svg>
