<?xml version="1.0" encoding="UTF-8" standalone="no"?>
<!-- Created with Inkscape (http://www.inkscape.org/) -->

<svg
   width="159.97491mm"
   height="164.96957mm"
   viewBox="0 0 159.97491 164.96957"
   version="1.1"
   id="svg5"
   xml:space="preserve"
   xmlns:inkscape="http://www.inkscape.org/namespaces/inkscape"
   xmlns:sodipodi="http://sodipodi.sourceforge.net/DTD/sodipodi-0.dtd"
   xmlns="http://www.w3.org/2000/svg"
   xmlns:svg="http://www.w3.org/2000/svg"><sodipodi:namedview
     id="namedview7"
     pagecolor="#ffffff"
     bordercolor="#000000"
     borderopacity="0.25"
     inkscape:showpageshadow="2"
     inkscape:pageopacity="0.0"
     inkscape:pagecheckerboard="0"
     inkscape:deskcolor="#d1d1d1"
     inkscape:document-units="mm"
     showgrid="false" /><defs
     id="defs2" /><g
     inkscape:label="Layer 1"
     inkscape:groupmode="layer"
     id="layer1"
     transform="translate(177.59595,-65.864035)"><g
       id="g775"
       transform="rotate(42.763105,-84.011763,143.47229)"><path
         style="fill:#f3ac2f;stroke-width:0.264583"
         d="m -39.31578,216.18003 c 0.79042,-0.80037 1.49666,-1.45521 1.56942,-1.45521 0.0728,0 -0.51442,0.65484 -1.30484,1.45521 -0.79042,0.80036 -1.49666,1.4552 -1.56942,1.4552 -0.0728,0 0.51442,-0.65484 1.30484,-1.4552 z m -33.80528,-0.39688 c 0,-0.50932 0.0545,-0.71768 0.121,-0.46302 0.0665,0.25466 0.0665,0.67138 0,0.92604 -0.0666,0.25466 -0.121,0.0463 -0.121,-0.46302 z m 6.28861,-0.62906 c 0,-0.0549 0.20836,-0.2633 0.46302,-0.46302 0.41965,-0.32911 0.42901,-0.31975 0.0999,0.0999 -0.34564,0.44073 -0.56292,0.58089 -0.56292,0.36313 z m 29.63333,-1.32292 c 0,-0.0549 0.20836,-0.2633 0.46303,-0.46302 0.41964,-0.32911 0.429,-0.31975 0.0999,0.0999 -0.34564,0.44073 -0.56292,0.58088 -0.56292,0.36312 z m 4.50603,-6.64698 c 0,-0.14552 0.11541,-0.44317 0.25647,-0.66145 0.14107,-0.21829 0.25648,-0.27782 0.25648,-0.1323 0,0.14552 -0.11541,0.44318 -0.25648,0.66146 -0.14106,0.21828 -0.25647,0.27781 -0.25647,0.13229 z m 1.05833,-2.38125 c 0,-0.14552 0.11541,-0.44317 0.25648,-0.66145 0.14106,-0.21829 0.25648,-0.27782 0.25648,-0.1323 0,0.14552 -0.11542,0.44318 -0.25648,0.66146 -0.14107,0.21828 -0.25648,0.27781 -0.25648,0.13229 z m -4.02647,-2.16511 c 0.191,-0.0764 0.41921,-0.067 0.50712,0.0209 0.0879,0.0879 -0.0684,0.15046 -0.34726,0.13897 -0.30823,-0.0127 -0.37092,-0.0754 -0.15986,-0.15985 z m 2.37621,-0.99326 c 0.91582,-0.49356 2.05178,-1.1923 2.52436,-1.55275 l 0.85922,-0.65536 0.0258,0.69887 c 0.0154,0.41643 -0.0251,0.50368 -0.1002,0.21587 -0.11083,-0.42476 -0.17903,-0.43727 -0.56579,-0.10374 -0.68431,0.59012 -3.73855,2.30723 -4.09197,2.30052 -0.17411,-0.003 0.43276,-0.40984 1.34858,-0.90341 z m -2.42419,0.24796 c 0.10909,-0.29104 0.67236,-1.41109 1.25172,-2.489 l 1.05339,-1.95983 -0.77303,-0.61854 c -0.42516,-0.3402 -0.85359,-0.61914 -0.95207,-0.61986 -0.0985,-7.9e-4 -0.21753,-0.17924 -0.26458,-0.3967 -0.0756,-0.34956 -0.17513,-0.34866 -0.85832,0.008 -0.47992,0.25036 -0.86662,0.30929 -1.02041,0.1555 -0.15379,-0.15379 -0.072,-0.23192 0.21584,-0.20618 0.30416,0.0272 0.48057,-0.16319 0.51318,-0.55386 0.0288,-0.34446 -0.0989,-0.59532 -0.30297,-0.59532 -0.19396,0 -0.35266,-0.0992 -0.35266,-0.22049 0,-0.12127 -0.35195,-0.22049 -0.78211,-0.22049 -0.43016,0 -0.71315,0.11157 -0.62888,0.24793 0.0843,0.13637 -0.15909,0.0433 -0.5408,-0.20681 -0.70952,-0.4649 -0.95948,-0.82416 -0.36331,-0.52218 0.1819,0.0921 0.0926,-0.0158 -0.19844,-0.23995 -0.29104,-0.2241 -0.67799,-0.53528 -0.85989,-0.6915 -0.1819,-0.15623 -0.33073,-0.19706 -0.33073,-0.0907 0,0.10631 -0.16886,-0.0376 -0.37524,-0.31988 -0.34905,-0.47735 -0.77177,-0.3929 -0.84846,0.1695 -0.0182,0.13339 -0.048,0.31945 -0.0661,0.41346 -0.0182,0.094 -0.33267,-0.15235 -0.69884,-0.54745 -0.36618,-0.39511 -0.5859,-0.84761 -0.48829,-1.00556 0.10682,-0.17283 0.0541,-0.21094 -0.13229,-0.0957 -0.17038,0.1053 -0.22545,0.33205 -0.12238,0.5039 0.12591,0.20994 0.0515,0.20245 -0.22673,-0.0229 -0.40879,-0.33097 -1.27496,-0.19627 -1.27496,0.19826 0,0.11178 0.38696,0.39398 0.8599,0.62713 0.51775,0.25523 0.67687,0.42629 0.3999,0.42992 -0.54233,0.007 -1.52438,-0.77305 -1.52438,-1.21099 0,-0.51019 -0.63504,-0.87238 -1.64934,-0.94069 -0.52927,-0.0356 -0.90273,-0.1612 -0.82991,-0.27901 0.0728,-0.11782 -0.11347,-0.52678 -0.41397,-0.9088 -0.3005,-0.38202 -0.54636,-0.56749 -0.54636,-0.41215 0,0.15534 -0.23985,0.35856 -0.53301,0.4516 -0.29316,0.0931 -0.45335,0.29806 -0.35599,0.45559 0.10547,0.17065 0.0536,0.21011 -0.12845,0.0976 -0.16801,-0.10384 -0.30547,-0.29541 -0.30547,-0.42573 0,-0.25708 -1.25281,-1.58391 -1.49554,-1.58391 -0.0817,0 -0.0736,0.19543 0.0181,0.43429 0.14076,0.36682 0.10268,0.3812 -0.24508,0.0926 -0.22646,-0.18795 -0.36845,-0.47161 -0.31553,-0.63038 0.0913,-0.27392 -0.41355,-0.95484 -0.70795,-0.95484 -0.0759,0 -0.18095,0.68461 -0.23345,1.52136 -0.0549,0.87472 -0.11771,0.28432 -0.1478,-1.38907 -0.0288,-1.60072 -0.23321,-4.39869 -0.45429,-6.2177 -0.82939,-6.82405 -0.92813,-7.74934 -0.83665,-7.84082 0.0516,-0.0516 1.05207,0.88793 2.22327,2.08784 l 2.12946,2.18165 0.142,-3.30756 c 0.16528,-3.85003 0.64544,-5.93258 2.04365,-8.86382 1.90725,-3.99838 4.98674,-7.36709 9.36115,-10.24032 1.29427,-0.8501 2.39332,-1.50552 2.44236,-1.45649 0.049,0.049 -0.2569,0.91494 -0.67987,1.92423 -1.25256,2.98894 -1.69218,5.76599 -1.52302,9.62086 0.0803,1.8297 0.34185,4.04109 0.58124,4.91422 0.65895,2.40338 3.37729,9.11677 3.6286,8.96145 0.30502,-0.18851 1.65166,-2.91831 2.05822,-4.17227 0.43919,-1.35459 0.65953,-0.94648 1.21717,2.25451 0.59802,3.43276 0.38996,11.06016 -0.38609,14.15353 -0.76104,3.03359 -1.9427,6.34216 -3.07484,8.60936 -0.95381,1.91009 -1.69829,3.03114 -1.2906,1.94342 z m 2.47884,-5.15938 c 0,-0.14552 -0.0525,-0.26458 -0.11667,-0.26458 -0.0642,0 -0.19026,0.11906 -0.2802,0.26458 -0.0899,0.14552 -0.0374,0.26459 0.11668,0.26459 0.1541,0 0.28019,-0.11907 0.28019,-0.26459 z m -24.87083,1.5434 c 0,-0.12126 0.11204,-0.22048 0.24897,-0.22048 0.13693,0 0.31029,0.0992 0.38524,0.22048 0.0749,0.12127 -0.0371,0.22049 -0.24897,0.22049 -0.21188,0 -0.38524,-0.0992 -0.38524,-0.22049 z m 3.98964,-2.75607 c 0.0127,-0.30823 0.0754,-0.37092 0.15985,-0.15985 0.0764,0.19099 0.067,0.4192 -0.0209,0.50712 -0.0879,0.0879 -0.15046,-0.0684 -0.13897,-0.34727 z m 16.51824,-0.37914 c 0.0914,-0.1479 0.27702,-0.2004 0.41249,-0.11668 0.36698,0.22681 0.29856,0.38558 -0.16619,0.38558 -0.22687,0 -0.33771,-0.12101 -0.2463,-0.2689 z m -16.23277,-1.05402 c 0,-0.3638 0.0601,-0.51263 0.13345,-0.33073 0.0734,0.1819 0.0734,0.47956 0,0.66146 -0.0734,0.1819 -0.13345,0.0331 -0.13345,-0.33073 z m 0.27439,-1.98438 c 0.005,-0.43656 0.0647,-0.58312 0.13177,-0.32569 0.0671,0.25743 0.0627,0.61462 -0.01,0.79375 -0.0725,0.17913 -0.12737,-0.0315 -0.12197,-0.46806 z m 4.80409,-1.59161 c 0.23527,-0.17203 0.34032,-0.40941 0.23345,-0.52749 -0.10688,-0.11808 -0.0507,-0.13226 0.12484,-0.0315 0.42645,0.24475 0.16352,0.8718 -0.36556,0.8718 -0.38018,0 -0.37948,-0.03 0.007,-0.3128 z"
         id="path453" /><path
         style="fill:#ec8f31;stroke-width:0.264583"
         d="m -93.09234,240.74334 c 0.1819,-0.0734 0.47956,-0.0734 0.66146,0 0.1819,0.0734 0.0331,0.13345 -0.33073,0.13345 -0.3638,0 -0.51263,-0.0601 -0.33073,-0.13345 z m 6.61458,0 c 0.1819,-0.0734 0.47956,-0.0734 0.66146,0 0.1819,0.0734 0.0331,0.13345 -0.33073,0.13345 -0.3638,0 -0.51263,-0.0601 -0.33073,-0.13345 z m -10.83138,-0.2701 c 0.191,-0.0764 0.4192,-0.067 0.50712,0.0209 0.0879,0.0879 -0.0684,0.15045 -0.34727,0.13896 -0.30822,-0.0127 -0.37091,-0.0754 -0.15985,-0.15985 z m 15.08125,0 c 0.191,-0.0764 0.4192,-0.067 0.50712,0.0209 0.0879,0.0879 -0.0684,0.15045 -0.34727,0.13896 -0.30822,-0.0127 -0.37092,-0.0754 -0.15985,-0.15985 z m -32.01458,-10.84791 c 0.19099,-0.0764 0.4192,-0.067 0.50712,0.0209 0.0879,0.0879 -0.0683,0.15046 -0.34727,0.13897 -0.30822,-0.0127 -0.37092,-0.0754 -0.15985,-0.15985 z m 7.14375,0 c 0.19099,-0.0764 0.4192,-0.067 0.50712,0.0209 0.0879,0.0879 -0.0684,0.15046 -0.34727,0.13897 -0.30822,-0.0127 -0.37092,-0.0754 -0.15985,-0.15985 z m 3.175,-0.26459 c 0.19099,-0.0764 0.4192,-0.067 0.50712,0.0209 0.0879,0.0879 -0.0684,0.15045 -0.34727,0.13896 -0.30822,-0.0127 -0.37092,-0.0754 -0.15985,-0.15985 z m 56.40585,-1.50665 c 0,-0.0549 0.20836,-0.2633 0.46303,-0.46302 0.41964,-0.32911 0.429,-0.31975 0.0999,0.0999 -0.34564,0.44073 -0.56292,0.58089 -0.56292,0.36313 z m 1.05834,-0.79375 c 0,-0.0549 0.20836,-0.2633 0.46302,-0.46302 0.41964,-0.32911 0.429,-0.31975 0.0999,0.0999 -0.34565,0.44073 -0.56292,0.58089 -0.56292,0.36313 z m 1.05833,-0.79375 c 0,-0.0549 0.20836,-0.2633 0.46302,-0.46302 0.41965,-0.32911 0.42901,-0.31975 0.0999,0.0999 -0.34565,0.44073 -0.56292,0.58089 -0.56292,0.36313 z m -90.3439,-0.94016 c -0.0837,-0.13546 -0.0511,-0.30882 0.0726,-0.38523 0.12364,-0.0764 0.2248,0.0344 0.2248,0.2463 0,0.44613 -0.0834,0.48511 -0.29738,0.13893 z m 93.84129,-2.0688 c 1.0009,-1.03559 0.98894,-1.15206 -0.19329,-1.88136 -0.4632,-0.28574 -0.42334,-0.3048 0.33392,-0.15965 0.54709,0.10487 0.8599,0.0594 0.8599,-0.12498 0,-0.1594 0.35833,-0.26251 0.79628,-0.22914 l 0.79628,0.0607 -1.64853,1.66332 c -0.9067,0.91482 -1.70591,1.66332 -1.77602,1.66332 -0.0701,0 0.30404,-0.44649 0.83146,-0.99219 z m -2.5052,-2.10495 c 0.32742,-0.0631 0.8632,-0.0631 1.19062,0 0.32743,0.0631 0.0595,0.11466 -0.59531,0.11466 -0.65484,0 -0.92273,-0.0516 -0.59531,-0.11466 z m 0.0661,-0.70692 c 0,-0.0549 0.20836,-0.2633 0.46303,-0.46303 0.41964,-0.3291 0.429,-0.31974 0.0999,0.0999 -0.34564,0.44073 -0.56292,0.58089 -0.56292,0.36313 z m 0.79375,-0.88617 c -0.21828,-0.0628 -0.57546,-0.18378 -0.79375,-0.26882 -0.21828,-0.085 -0.46491,-0.16491 -0.54806,-0.17747 -0.0831,-0.0126 -0.36064,-0.23231 -0.61664,-0.48831 -0.256,-0.256 -0.57471,-0.39793 -0.70825,-0.3154 -0.30606,0.18916 -1.36045,-0.52776 -1.12397,-0.76423 0.0961,-0.0961 -0.0308,-0.17471 -0.28188,-0.17471 -0.25113,0 -0.39258,-0.10357 -0.31434,-0.23016 0.0782,-0.1266 -0.29359,-0.22137 -0.82629,-0.21062 -0.53583,0.0108 -1.01598,-0.12276 -1.07473,-0.29899 -0.0584,-0.17521 0.0526,-0.32693 0.2466,-0.33716 0.19402,-0.0102 0.11465,-0.11457 -0.17639,-0.23188 -0.29104,-0.11731 -0.66409,-0.1059 -0.829,0.0253 -0.35186,0.28005 -0.72532,-0.45878 -0.4539,-0.89795 0.11297,-0.18279 0.0453,-0.20201 -0.19293,-0.0548 -0.55147,0.34083 -1.26623,0.33343 -1.13378,-0.0117 0.0641,-0.16699 -0.18575,-0.44133 -0.55517,-0.60965 -0.36942,-0.16832 -0.67168,-0.44039 -0.67168,-0.6046 0,-0.16421 -0.1786,-0.23003 -0.39688,-0.14626 -0.21828,0.0838 -0.39687,0.0543 -0.39687,-0.0653 0,-0.11971 -0.31282,-0.55519 -0.69515,-0.96773 -0.57687,-0.62245 -0.66539,-0.6563 -0.52023,-0.19891 l 0.17494,0.55117 -1.19507,-0.54979 c -0.65728,-0.30238 -1.13403,-0.61081 -1.05943,-0.68541 0.0746,-0.0746 -0.29885,-0.34696 -0.82987,-0.60525 -0.6811,-0.33129 -1.10425,-0.39535 -1.4366,-0.21749 -0.34755,0.18601 -0.5124,0.14453 -0.62855,-0.15814 -0.10788,-0.28114 -0.34522,-0.35743 -0.75405,-0.2424 -0.47941,0.13488 -0.51865,0.11032 -0.19974,-0.12505 0.31133,-0.22978 0.21225,-0.26712 -0.4597,-0.17323 -0.7756,0.10837 -0.83099,0.0719 -0.586,-0.38588 0.33884,-0.63313 0.55561,-0.66076 0.33378,-0.0425 -0.0914,0.25466 -0.0716,0.37749 0.044,0.27296 0.11559,-0.10453 0.23274,-0.40219 0.26034,-0.66146 0.0276,-0.25927 0.64865,-1.72155 1.38013,-3.24952 1.42212,-2.97059 2.07238,-4.78212 2.35821,-6.56959 0.23868,-1.49266 0.56617,-1.616 1.04813,-0.39476 0.21949,0.55617 0.55632,1.36645 0.7485,1.80061 l 0.34941,0.78938 0.59259,-1.31855 c 0.97844,-2.1771 1.83106,-5.99947 2.16761,-9.71769 0.1746,-1.92891 0.35156,-3.55104 0.39324,-3.60475 0.1542,-0.19868 0.80154,0.64179 0.70874,0.92019 -0.0529,0.15877 0.0891,0.44243 0.31553,0.63038 0.34776,0.28861 0.38584,0.27423 0.24508,-0.0926 -0.0917,-0.23886 -0.0998,-0.43429 -0.0181,-0.43429 0.24273,0 1.49554,1.32683 1.49554,1.58391 0,0.13032 0.13746,0.32189 0.30547,0.42573 0.182,0.11248 0.23392,0.073 0.12845,-0.0976 -0.0974,-0.15753 0.0628,-0.36254 0.35599,-0.45559 0.29316,-0.093 0.53301,-0.29626 0.53301,-0.4516 0,-0.15534 0.24586,0.0301 0.54636,0.41215 0.3005,0.38202 0.48678,0.79098 0.41397,0.9088 -0.0728,0.11781 0.30064,0.24337 0.82991,0.27901 1.0143,0.0683 1.64934,0.4305 1.64934,0.94069 0,0.43794 0.98205,1.21811 1.52438,1.211 0.27697,-0.004 0.11785,-0.17469 -0.3999,-0.42992 -0.47294,-0.23315 -0.8599,-0.51535 -0.8599,-0.62713 0,-0.39453 0.86617,-0.52922 1.27496,-0.19826 0.27826,0.2253 0.35264,0.23279 0.22673,0.0229 -0.10307,-0.17185 -0.048,-0.3986 0.12238,-0.5039 0.18643,-0.11522 0.23911,-0.0771 0.13229,0.0957 -0.0976,0.15795 0.12211,0.61045 0.48829,1.00556 0.36617,0.39511 0.68065,0.64146 0.69884,0.54745 0.0182,-0.094 0.048,-0.28006 0.0661,-0.41346 0.0767,-0.56239 0.49941,-0.64684 0.84846,-0.1695 0.20638,0.28225 0.37524,0.42619 0.37524,0.31988 0,-0.10631 0.14883,-0.0655 0.33073,0.0907 0.1819,0.15622 0.56885,0.4674 0.85989,0.69151 0.29104,0.22411 0.38034,0.33208 0.19844,0.23994 -0.59617,-0.30198 -0.34621,0.0573 0.36331,0.52218 0.38171,0.25011 0.62508,0.34318 0.5408,0.20682 -0.0843,-0.13636 0.19872,-0.24793 0.62888,-0.24793 0.43016,0 0.78211,0.0992 0.78211,0.22048 0,0.12127 0.1587,0.22049 0.35266,0.22049 0.20406,0 0.33172,0.25085 0.30297,0.59531 -0.0326,0.39067 -0.20902,0.58107 -0.51318,0.55386 -0.28783,-0.0257 -0.36963,0.0524 -0.21584,0.20619 0.15379,0.15379 0.54049,0.0949 1.02041,-0.15551 0.61283,-0.31969 0.78843,-0.33194 0.84842,-0.0592 0.0416,0.18918 0.40935,0.54108 0.81722,0.78202 0.56305,0.3326 0.81556,0.36409 1.04884,0.13081 0.23328,-0.23329 0.30725,-0.23083 0.30725,0.0102 0,0.17462 -0.12609,0.3175 -0.28019,0.3175 -0.15411,0 -0.20756,0.11753 -0.11878,0.26119 0.0888,0.14365 -0.38044,1.29674 -1.04272,2.56241 -1.45941,2.78907 -1.50088,3.10445 -0.37569,2.85732 0.93626,-0.20564 3.76159,-1.77443 4.66087,-2.588 l 0.59453,-0.53786 -0.41902,1.43445 c -0.80066,2.74086 -3.03083,7.44729 -4.64732,9.80742 -2.59575,3.78991 -7.78639,9.02504 -8.69043,8.76492 z m 6.61459,-24.26603 c 0,-0.27926 -0.50777,-0.39659 -0.65879,-0.15222 -0.0914,0.14789 0.0194,0.2689 0.2463,0.2689 0.22687,0 0.41249,-0.0525 0.41249,-0.11668 z m -11.26774,-4.81374 c 0.0727,-0.18937 -0.0115,-0.42674 -0.18705,-0.52749 -0.17554,-0.10075 -0.23172,-0.0866 -0.12484,0.0315 0.10687,0.11808 0.002,0.35546 -0.23345,0.52749 -0.38675,0.2828 -0.38745,0.3128 -0.007,0.3128 0.23128,0 0.47996,-0.15494 0.55262,-0.34431 z M -73.4053,218.1644 c 0,-0.3638 0.0601,-0.51263 0.13346,-0.33073 0.0734,0.1819 0.0734,0.47956 0,0.66146 -0.0734,0.1819 -0.13346,0.0331 -0.13346,-0.33073 z m 24.96135,0 c -0.0899,-0.14552 -0.0374,-0.26458 0.11668,-0.26458 0.15411,0 0.2802,0.11906 0.2802,0.26458 0,0.14552 -0.0525,0.26458 -0.11668,0.26458 -0.0642,0 -0.19026,-0.11906 -0.2802,-0.26458 z m -26.33709,-1.38906 c 0.64876,-0.69122 1.2143,-1.25677 1.25677,-1.25677 0.19867,0 -0.0114,0.23755 -1.17957,1.33397 l -1.25677,1.17957 z m 5.69959,0.59531 c 0.26339,-0.29104 0.53843,-0.52917 0.61119,-0.52917 0.0728,0 -0.0832,0.23813 -0.3466,0.52917 -0.26339,0.29104 -0.53842,0.52917 -0.61118,0.52917 -0.0728,0 0.0832,-0.23813 0.34659,-0.52917 z m 3.57188,-3.57187 c 0.34177,-0.36381 0.68094,-0.66146 0.7537,-0.66146 0.0728,0 -0.14734,0.29765 -0.48912,0.66146 -0.34177,0.3638 -0.68094,0.66145 -0.7537,0.66145 -0.0728,0 0.14734,-0.29765 0.48912,-0.66145 z m 7.40833,-0.92604 c 0,-0.14553 0.12609,-0.26459 0.2802,-0.26459 0.15411,0 0.20661,0.11906 0.11668,0.26459 -0.0899,0.14552 -0.21603,0.26458 -0.2802,0.26458 -0.0642,0 -0.11668,-0.11906 -0.11668,-0.26458 z m -6.35,-0.36448 c 0,-0.0549 0.20836,-0.2633 0.46302,-0.46303 0.41965,-0.3291 0.42901,-0.31974 0.0999,0.0999 -0.34564,0.44073 -0.56292,0.58089 -0.56292,0.36313 z m 4.89479,-0.69386 c 0.0899,-0.14552 0.27556,-0.26458 0.41249,-0.26458 0.13694,0 0.24897,0.11906 0.24897,0.26458 0,0.14552 -0.18562,0.26459 -0.41249,0.26459 -0.22687,0 -0.3389,-0.11907 -0.24897,-0.26459 z m -4.10104,-0.36448 c 0,-0.0549 0.20836,-0.2633 0.46302,-0.46302 0.41965,-0.32911 0.42901,-0.31975 0.0999,0.0999 -0.34564,0.44073 -0.56292,0.58089 -0.56292,0.36312 z"
         id="path451" /><path
         style="fill:#e76e35;stroke-width:0.264583"
         d="m -90.83372,240.72275 c 0.84205,-0.0527 2.15174,-0.0522 2.91041,0.001 0.75867,0.0533 0.0697,0.0964 -1.53101,0.0958 -1.60073,-5.3e-4 -2.22146,-0.0442 -1.3794,-0.0968 z m -5.68167,-0.24951 c 0.191,-0.0764 0.4192,-0.067 0.50712,0.0209 0.0879,0.0879 -0.0683,0.15045 -0.34727,0.13896 -0.30822,-0.0127 -0.37091,-0.0754 -0.15985,-0.15985 z m 13.49375,0 c 0.191,-0.0764 0.4192,-0.067 0.50712,0.0209 0.0879,0.0879 -0.0684,0.15045 -0.34727,0.13896 -0.30822,-0.0127 -0.37092,-0.0754 -0.15985,-0.15985 z m 2.64583,-0.26458 c 0.191,-0.0764 0.4192,-0.067 0.50712,0.0209 0.0879,0.0879 -0.0684,0.15045 -0.34726,0.13896 -0.30823,-0.0127 -0.37092,-0.0754 -0.15986,-0.15985 z m -22.48958,-0.52917 c 0.191,-0.0764 0.4192,-0.067 0.50712,0.0209 0.0879,0.0879 -0.0684,0.15045 -0.34727,0.13896 -0.30822,-0.0127 -0.37091,-0.0754 -0.15985,-0.15985 z m -1.32291,-0.26458 c 0.19099,-0.0764 0.4192,-0.067 0.50711,0.0209 0.0879,0.0879 -0.0684,0.15045 -0.34726,0.13896 -0.30823,-0.0127 -0.37092,-0.0754 -0.15985,-0.15985 z m 41.85377,-3.78801 c 0.21828,-0.14106 0.51594,-0.25648 0.66146,-0.25648 0.14552,0 0.086,0.11542 -0.13229,0.25648 -0.21829,0.14107 -0.51594,0.25648 -0.66146,0.25648 -0.14552,0 -0.086,-0.11541 0.13229,-0.25648 z m 2.67807,-1.39651 c -0.16325,-0.16325 -0.29682,-0.20498 -0.29682,-0.0927 0,0.11226 -0.19739,0.007 -0.43864,-0.23452 -0.25544,-0.25545 -0.69744,-0.38916 -1.05833,-0.32018 -0.47035,0.0899 -0.6197,-2.2e-4 -0.6197,-0.37401 0,-0.6098 -0.46474,-0.63279 -1.10364,-0.0546 -0.60436,0.54693 -0.64628,0.056 -0.0703,-0.82311 0.43378,-0.66203 0.26568,-0.72453 -0.75911,-0.28221 -0.33578,0.14494 -0.64007,0.0321 -1.02359,-0.37955 -0.33613,-0.36079 -0.74113,-0.53472 -1.05439,-0.4528 -0.40443,0.10576 -0.47565,0.0291 -0.34764,-0.37423 0.19637,-0.61872 0.0364,-0.63451 -0.81002,-0.0799 -0.40052,0.26243 -0.65215,0.31347 -0.65215,0.13229 0,-0.16226 0.10518,-0.29501 0.23372,-0.29501 0.47129,0 0.48591,-1.0042 0.0204,-1.40276 -0.2607,-0.22322 -0.52801,-0.35185 -0.59402,-0.28584 -0.066,0.066 -0.31738,-0.2959 -0.55861,-0.80424 -0.43388,-0.91433 -0.9536,-1.46292 -0.9536,-1.00658 0,0.12979 -0.26789,0.20627 -0.59532,0.16996 -0.88222,-0.0978 -0.88716,-0.10092 -0.52878,-0.32846 0.24836,-0.1577 0.18224,-0.3703 -0.26459,-0.85074 -0.32763,-0.35227 -0.56238,-0.74272 -0.52167,-0.86767 0.0407,-0.12494 -0.27966,0.0247 -0.71193,0.33248 l -0.78596,0.55965 -0.43857,-0.92422 c -0.24122,-0.50833 -0.51616,-0.90923 -0.61098,-0.8909 -0.0948,0.0183 -0.38521,-0.0596 -0.64529,-0.17306 -0.31061,-0.13557 -0.64615,-0.0496 -0.97785,0.25062 -0.48198,0.43618 -0.50307,0.43161 -0.46301,-0.1002 0.0231,-0.30647 0.225,-0.56083 0.44869,-0.56525 0.32797,-0.006 0.316,-0.0609 -0.0619,-0.28085 -0.25772,-0.15004 -0.38746,-0.41431 -0.28831,-0.58727 0.0992,-0.17295 0.0837,-0.22702 -0.0344,-0.12014 -0.11808,0.10688 -0.36556,-0.012 -0.54995,-0.26417 -0.1844,-0.25217 -0.43429,-0.35913 -0.55533,-0.23769 -0.12104,0.12144 0.0504,0.44006 0.38093,0.70806 0.73304,0.59431 0.36915,0.89995 -0.77285,0.64912 -0.62171,-0.13655 -0.77078,-0.0999 -0.61554,0.15128 0.30705,0.49681 -1.11222,0.084 -2.10689,-0.61287 -0.5804,-0.40661 -0.70699,-0.43911 -0.44676,-0.1147 0.32915,0.41033 0.27547,0.45269 -0.57368,0.45269 -0.51523,0 -1.09536,0.04 -1.28916,0.0889 -0.19381,0.0489 -0.26307,0.039 -0.15393,-0.022 0.10914,-0.061 0.19843,-0.29238 0.19843,-0.5141 0,-0.25564 0.15024,-0.34549 0.41062,-0.24557 0.22584,0.0867 0.34739,0.0553 0.27011,-0.0698 -0.14716,-0.2381 3.00936,-2.3178 3.35417,-2.20992 0.10914,0.0342 0.19844,-0.064 0.19844,-0.21811 0,-0.15411 0.13746,-0.19524 0.30546,-0.0914 0.1732,0.10704 0.23421,0.0735 0.14091,-0.0775 -0.0905,-0.14644 0.59862,-0.88546 1.53139,-1.64226 0.93277,-0.7568 2.07954,-1.81288 2.54838,-2.34685 l 0.85242,-0.97086 -0.18164,1.95436 c -0.0999,1.07489 -0.25142,2.2324 -0.33671,2.57223 -0.21701,0.86463 0.20891,0.79105 2.11663,-0.36567 2.05902,-1.24845 5.81405,-4.85479 7.7654,-7.45789 1.88706,-2.51734 1.99963,-2.6485 1.78158,-2.07575 -0.12259,0.32201 -0.0468,0.46302 0.24891,0.46302 0.23385,0 0.64726,0.22208 0.91868,0.4935 0.32773,0.32773 0.62719,0.41868 0.89151,0.27076 0.40097,-0.22439 2.47304,0.58116 2.19922,0.85499 -0.0746,0.0746 0.40215,0.38303 1.05943,0.68541 l 1.19507,0.54978 -0.17494,-0.55117 c -0.14516,-0.45738 -0.0566,-0.42353 0.52023,0.19892 0.38233,0.41254 0.69515,0.84802 0.69515,0.96772 0,0.11971 0.17859,0.14912 0.39687,0.0653 0.21828,-0.0838 0.39688,-0.0179 0.39688,0.14627 0,0.16421 0.30226,0.43628 0.67168,0.6046 0.36942,0.16832 0.61925,0.44267 0.55517,0.60966 -0.13245,0.34517 0.58231,0.35257 1.13378,0.0117 0.2382,-0.14721 0.3059,-0.12798 0.19293,0.0548 -0.27142,0.43917 0.10204,1.178 0.4539,0.89796 0.16491,-0.13125 0.53796,-0.14266 0.829,-0.0254 0.29104,0.11731 0.37041,0.22166 0.17639,0.23188 -0.19403,0.0102 -0.305,0.16195 -0.2466,0.33716 0.0588,0.17624 0.5389,0.30982 1.07473,0.299 0.5327,-0.0108 0.90453,0.084 0.82629,0.21061 -0.0782,0.12659 0.0504,0.23016 0.28585,0.23016 0.23546,0 0.36223,0.10659 0.28172,0.23687 -0.16134,0.26105 0.49732,0.62353 1.27603,0.70223 0.27467,0.0278 0.60941,0.24705 0.74386,0.4873 0.13445,0.24025 0.34798,0.37284 0.4745,0.29465 0.12652,-0.0782 0.30482,-0.0212 0.39623,0.12672 0.0914,0.1479 0.42537,0.2689 0.74216,0.2689 0.5099,0 0.47829,0.0683 -0.27563,0.59531 -1.21456,0.84905 -1.11813,1.30693 0.26374,1.25222 1.58516,-0.0628 1.64135,-0.0506 2.26323,0.48874 l 0.55827,0.48418 -1.24539,1.20478 c -2.98045,2.88329 -7.77007,6.06632 -15.4925,10.29581 -0.26883,0.14724 -0.55657,0.19993 -0.63941,0.11709 -0.0828,-0.0829 0.008,-0.15064 0.20215,-0.15064 0.19403,0 0.29045,-0.0623 0.21426,-0.13852 -0.21051,-0.21051 -1.02363,0.16378 -0.87572,0.4031 0.21268,0.34413 -0.57281,0.51197 -0.8938,0.19099 z m -4.53015,-2.9535 c 0,-0.0642 -0.11907,-0.19026 -0.26459,-0.2802 -0.14552,-0.0899 -0.26458,-0.0374 -0.26458,0.11668 0,0.15411 0.11906,0.2802 0.26458,0.2802 0.14552,0 0.26459,-0.0525 0.26459,-0.11668 z m -8.63557,-6.89478 c -0.0838,-0.21828 -0.19909,-0.39688 -0.25628,-0.39688 -0.0572,0 -0.10399,0.1786 -0.10399,0.39688 0,0.21828 0.11533,0.39687 0.25628,0.39687 0.14096,0 0.18775,-0.17859 0.10399,-0.39687 z m -0.88943,-0.94166 c 0,-0.13693 -0.17486,-0.24897 -0.38858,-0.24897 -0.23603,0 -0.32901,0.15521 -0.23685,0.39536 0.15618,0.407 0.62543,0.29717 0.62543,-0.14639 z m 25.66458,-5.27605 c 0,-0.14552 -0.12609,-0.26458 -0.2802,-0.26458 -0.15411,0 -0.20661,0.11906 -0.11668,0.26458 0.0899,0.14552 0.21603,0.26458 0.2802,0.26458 0.0642,0 0.11668,-0.11906 0.11668,-0.26458 z m -9.65729,-5.29166 c 0.0899,-0.14553 0.0374,-0.26459 -0.11668,-0.26459 -0.15411,0 -0.2802,0.11906 -0.2802,0.26459 0,0.14552 0.0525,0.26458 0.11668,0.26458 0.0642,0 0.19026,-0.11906 0.2802,-0.26458 z m -1.19063,-1.05834 c 0,-0.14552 -0.11203,-0.26458 -0.24897,-0.26458 -0.13693,0 -0.32255,0.11906 -0.41249,0.26458 -0.0899,0.14552 0.0221,0.26459 0.24897,0.26459 0.22687,0 0.41249,-0.11907 0.41249,-0.26459 z m -56.42239,17.81644 c 0.1819,-0.0734 0.47956,-0.0734 0.66146,0 0.1819,0.0734 0.0331,0.13345 -0.33073,0.13345 -0.3638,0 -0.51263,-0.06 -0.33073,-0.13345 z m 9.13316,-0.008 c 0.25743,-0.0671 0.61462,-0.0627 0.79375,0.01 0.17913,0.0725 -0.0315,0.12737 -0.46806,0.12197 -0.43656,-0.005 -0.58312,-0.0647 -0.32569,-0.13177 z m 37.25462,-0.45455 c -0.23725,-0.28586 -0.23526,-0.41941 0.008,-0.57005 0.19541,-0.12077 0.2493,-0.0851 0.13957,0.0925 -0.0983,0.15907 0.0321,0.41197 0.28985,0.56201 0.25773,0.15004 0.33434,0.27642 0.17025,0.28084 -0.16408,0.004 -0.43775,-0.15995 -0.60815,-0.36527 z m -50.86916,-0.072 c 0.19099,-0.0764 0.4192,-0.067 0.50712,0.0209 0.0879,0.0879 -0.0684,0.15045 -0.34727,0.13896 -0.30822,-0.0127 -0.37092,-0.0754 -0.15985,-0.15985 z m 18.52083,0 c 0.191,-0.0764 0.4192,-0.067 0.50712,0.0209 0.0879,0.0879 -0.0684,0.15045 -0.34727,0.13896 -0.30822,-0.0127 -0.37091,-0.0754 -0.15985,-0.15985 z m 31.27044,-0.31603 c 0,-0.1277 0.20836,-0.39559 0.46302,-0.59531 0.40968,-0.32129 0.42518,-0.3146 0.13459,0.0581 -0.18064,0.23167 -0.25009,0.49956 -0.15434,0.59531 0.0957,0.0958 0.0352,0.1741 -0.13459,0.1741 -0.16977,0 -0.30868,-0.10449 -0.30868,-0.23219 z m -61.85737,-0.77533 c -0.57151,-0.4398 -0.57603,-0.46659 -0.0787,-0.46659 0.29017,0 0.47475,0.0528 0.41019,0.1174 -0.0646,0.0646 0.0152,0.27718 0.17728,0.47247 0.3991,0.48087 0.21997,0.43746 -0.50873,-0.12328 z m -2.30408,-1.63832 c -0.0899,-0.14552 -0.0374,-0.26458 0.11667,-0.26458 0.15411,0 0.2802,0.11906 0.2802,0.26458 0,0.14553 -0.0525,0.26459 -0.11667,0.26459 -0.0642,0 -0.19027,-0.11906 -0.2802,-0.26459 z m -1.31301,-0.98012 c -0.74894,-0.64852 -0.75482,-0.6698 -0.13229,-0.47805 0.78261,0.24105 2.42309,0.98612 1.80827,0.82127 -0.23693,-0.0635 -0.53459,-0.014 -0.66146,0.11001 -0.1284,0.12552 -0.57821,-0.0754 -1.01452,-0.45323 z m 93.99985,-4.2277 c 0.191,-0.0764 0.4192,-0.067 0.50712,0.0209 0.0879,0.0879 -0.0684,0.15045 -0.34726,0.13896 -0.30823,-0.0127 -0.37092,-0.0754 -0.15986,-0.15985 z"
         id="path449" /><path
         style="fill:#e55838;stroke-width:0.264583"
         d="m -98.05328,240.35353 c -4.7291,-0.48393 -10.5881,-1.80363 -16.00729,-3.60553 -6.83689,-2.27328 -18.03542,-8.1316 -17.42672,-9.11649 0.10769,-0.17425 0.0554,-0.21253 -0.13202,-0.0967 -0.32806,0.20275 -2.15272,-0.78938 -2.15272,-1.17053 0,-0.12298 -0.20836,-0.26489 -0.46302,-0.31535 -0.25466,-0.0505 -0.34396,-0.16575 -0.19844,-0.25618 0.14553,-0.0904 0.97896,0.0652 1.85209,0.34588 1.99183,0.64027 8.21219,2.20598 10.31875,2.59729 8.18647,1.52072 17.37592,1.41496 25.24791,-0.29057 3.34699,-0.72516 7.09698,-2.06189 11.06615,-3.94469 1.78263,-0.8456 3.24114,-1.43649 3.24114,-1.31308 0,0.1234 -0.0893,0.27431 -0.19843,0.33535 -0.10914,0.061 -0.0399,0.071 0.15393,0.022 0.1938,-0.0489 0.77393,-0.0889 1.28916,-0.0889 0.84915,0 0.90283,-0.0424 0.57368,-0.45268 -0.26023,-0.32441 -0.13364,-0.29191 0.44676,0.1147 0.99467,0.69683 2.41394,1.10967 2.10689,0.61286 -0.15524,-0.25119 -0.006,-0.28783 0.61554,-0.15128 1.142,0.25083 1.50589,-0.0548 0.77285,-0.64912 -0.33055,-0.26799 -0.50197,-0.58662 -0.38093,-0.70806 0.12104,-0.12144 0.37093,-0.0145 0.55533,0.2377 0.18439,0.25217 0.43187,0.37104 0.54995,0.26416 0.11808,-0.10687 0.13357,-0.0528 0.0344,0.12015 -0.0992,0.17295 0.0306,0.43722 0.28831,0.58726 0.37787,0.21999 0.38984,0.27436 0.0619,0.28085 -0.22369,0.004 -0.42561,0.25879 -0.44869,0.56525 -0.0401,0.53182 -0.019,0.53638 0.46301,0.1002 0.3317,-0.30019 0.66724,-0.38619 0.97785,-0.25062 0.26008,0.11352 0.55046,0.19139 0.64529,0.17306 0.0948,-0.0183 0.36976,0.38258 0.61098,0.8909 l 0.43857,0.92422 0.78596,-0.55965 c 0.43227,-0.30781 0.75264,-0.45742 0.71193,-0.33248 -0.0407,0.12495 0.19404,0.5154 0.52167,0.86767 0.44683,0.48044 0.51295,0.69304 0.26459,0.85074 -0.35838,0.22754 -0.35344,0.23061 0.52878,0.32846 0.32743,0.0363 0.59532,-0.0402 0.59532,-0.16996 0,-0.45634 0.51972,0.0923 0.95359,1.00658 0.24123,0.50834 0.4926,0.87025 0.55861,0.80425 0.066,-0.066 0.33332,0.0626 0.59402,0.28583 0.46549,0.39857 0.45087,1.40276 -0.0204,1.40276 -0.12855,0 -0.23373,0.13275 -0.23373,0.29501 0,0.18118 0.25164,0.13014 0.65215,-0.13229 0.84639,-0.55457 1.00639,-0.53878 0.81002,0.0799 -0.12801,0.40333 -0.0568,0.48 0.34764,0.37423 0.31326,-0.0819 0.71827,0.092 1.05439,0.4528 0.38352,0.41166 0.68781,0.52449 1.02359,0.37956 1.02479,-0.44233 1.1929,-0.37983 0.75911,0.2822 -0.57599,0.87908 -0.53406,1.37004 0.0703,0.82311 0.6389,-0.5782 1.10364,-0.55521 1.10364,0.0546 0,0.37379 0.14935,0.46393 0.6197,0.37402 0.34084,-0.0652 0.7898,0.0516 0.9977,0.25954 0.20791,0.2079 0.59945,0.3455 0.8701,0.30578 1.96633,-0.2886 -4.85788,2.48424 -9.17206,3.72683 -7.04438,2.02894 -12.96052,2.79361 -21.22735,2.7437 -3.20235,-0.0193 -6.83448,-0.13871 -8.07141,-0.26529 z m 29.56162,-11.10094 c -0.25772,-0.15004 -0.38815,-0.40294 -0.28985,-0.562 0.10973,-0.17754 0.0558,-0.21324 -0.13957,-0.0925 -0.37119,0.2294 0.0902,0.94906 0.59967,0.93532 0.16409,-0.004 0.0875,-0.13081 -0.17025,-0.28085 z m -1.07252,-0.41437 c -0.0958,-0.0957 -0.0263,-0.36364 0.15434,-0.59531 0.29059,-0.37269 0.27509,-0.37938 -0.13459,-0.0581 -0.5306,0.41612 -0.60732,0.8275 -0.15434,0.8275 0.16978,0 0.23034,-0.0784 0.13459,-0.1741 z m 10.93382,4.9366 c 0.21828,-0.14107 0.51593,-0.25648 0.66145,-0.25648 0.14552,0 0.086,0.11541 -0.13229,0.25648 -0.21828,0.14106 -0.51594,0.25648 -0.66146,0.25648 -0.14552,0 -0.086,-0.11542 0.1323,-0.25648 z m -6.08542,-2.66145 c 0,-0.15411 0.11906,-0.20661 0.26458,-0.11668 0.14552,0.0899 0.26459,0.21603 0.26459,0.2802 0,0.0642 -0.11907,0.11668 -0.26459,0.11668 -0.14552,0 -0.26458,-0.12609 -0.26458,-0.2802 z m -8.46667,-6.73126 c 0,-0.21828 0.0468,-0.39688 0.10399,-0.39688 0.0572,0 0.17251,0.1786 0.25628,0.39688 0.0838,0.21828 0.037,0.39687 -0.10399,0.39687 -0.14095,0 -0.25628,-0.17859 -0.25628,-0.39687 z m -1.15459,-0.79527 c -0.0922,-0.24015 8.2e-4,-0.39536 0.23685,-0.39536 0.42794,0 0.52529,0.41345 0.15172,0.64433 -0.13027,0.0805 -0.30513,-0.0315 -0.38857,-0.24897 z"
         id="path447" /><path
         style="fill:#454949;stroke-width:0.264583"
         d="m -74.426656,205.10617 c -1.7216,-4.12037 -4.84171,-16.77965 -5.344,-21.68229 l -0.18003,-1.75714 h 3.17524 3.17523 l 0.32119,2.05052 c 0.7215,4.60624 1.71319,9.15979 2.966,13.61904 l 0.79712,2.83728 -1.26282,1.88221 c -0.69456,1.03521 -1.70235,2.37749 -2.23955,2.98284 l -0.97673,1.10063 z"
         id="path711" /><path
         style="fill:#454949;stroke-width:0.264583"
         d="m -91.541326,214.89408 c -0.0606,-0.0606 -0.0787,-7.56153 -0.0402,-16.66875 l 0.0701,-16.55859 h 3.03878 3.03878 v 14.7845 14.7845 l -2.18282,1.44031 c -3.58022,2.36239 -3.70794,2.43457 -3.92465,2.21803 z"
         id="path709" /><path
         style="fill:#454949;stroke-width:0.264583"
         d="m -134.85547,216.61233 c -1.7885,-0.55664 -3.30636,-1.06661 -3.37302,-1.13327 -0.0667,-0.0667 1.18589,-1.16084 2.78344,-2.43152 6.68442,-5.31672 11.56788,-11.14389 15.54458,-18.54851 2.97652,-5.54228 5.12874,-11.83347 5.869,-17.15579 0.15796,-1.13563 0.28788,-4.2886 0.28872,-7.00658 8e-4,-2.71799 0.10959,-5.59664 0.24166,-6.397 0.57238,-3.46881 2.1739,-6.12385 4.9715,-8.24187 2.13485,-1.61626 4.15089,-2.35242 7.02738,-2.56604 l 2.320204,-0.1723 -0.007,-48.57015 c -0.005,-31.988341 0.0851,-49.060437 0.2632,-50.006251 0.60461,-3.211653 2.8172,-6.126615 5.73962,-7.561627 1.41701,-0.695799 1.76832,-0.753637 4.57751,-0.753637 2.74734,0 3.18957,0.06883 4.55561,0.709099 2.74046,1.284452 5.02201,3.956883 5.71938,6.699234 0.17506,0.688406 0.31952,18.2599 0.41328,50.270832 l 0.14416,49.2125 2.25084,0.17598 c 2.51094,0.19633 3.64113,0.50556 5.54237,1.51647 2.839271,1.50967 5.044961,4.15238 6.040831,7.23773 0.44929,1.39194 0.56809,2.76104 0.75188,8.66461 0.1395,4.48087 0.36645,7.72766 0.62882,8.99583 0.61131,2.95485 0.54542,4.80573 -0.21074,5.92001 -0.34205,0.50403 -1.08161,2.1303 -1.64347,3.61393 l -1.02157,2.69751 -0.49474,-1.15479 c -1.21882,-2.84492 -2.670711,-8.3433 -3.146251,-11.91498 l -0.31157,-2.34013 -19.04605,0.0679 -19.046044,0.0679 -0.4611,2.74854 c -1.92591,11.48022 -7.88835,23.23389 -16.25194,32.03727 -3.30937,3.48339 -6.47446,6.35933 -6.98189,6.34407 -0.23463,-0.007 -1.88992,-0.46827 -3.67842,-1.02491 z m 65.296614,-48.95926 c 0,-3.78776 -1.00033,-5.94509 -3.41484,-7.36454 l -1.21537,-0.7145 -14.00184,-0.0751 -14.001844,-0.0752 -1.398,0.68398 c -2.60087,1.27249 -3.80353,3.60273 -3.80353,7.36964 0,1.20722 0.0794,2.27431 0.17639,2.37132 0.097,0.097 8.609984,0.17639 18.917714,0.17639 h 18.74132 z m -14.75846,-63.60387 c -0.0634,-41.856623 -0.1288,-49.016065 -0.45351,-49.644 -0.60084,-1.161886 -1.87409,-2.070508 -3.17471,-2.265551 -1.56217,-0.234259 -3.46131,0.662589 -4.23076,1.997927 -0.5291,0.918218 -0.53419,1.337321 -0.60261,49.609374 -0.0379,26.77583 -0.0108,48.8352 0.0604,49.02081 0.099,0.25821 1.10957,0.32035 4.30233,0.26458 l 4.1729,-0.0729 z"
         id="path707" /><path
         style="fill:#454949;stroke-width:0.264583"
         d="m -116.0786,219.83288 c 0.0501,-0.10914 1.22513,-2.46062 2.61127,-5.22552 3.73118,-7.44249 5.70851,-12.74574 7.79284,-20.90054 0.63253,-2.4747 1.41502,-6.1068 1.73888,-8.07133 0.32386,-1.96453 0.71995,-3.65935 0.88019,-3.76626 0.16024,-0.10691 1.57127,-0.19621 3.135624,-0.19844 l 2.84427,-0.004 v 0.69603 c 0,2.04623 -1.79352,10.86033 -3.291484,16.17568 -0.78584,2.78848 -2.71396,8.44867 -3.80641,11.17412 -1.60932,4.01491 -4.29868,9.90285 -4.61497,10.10377 -0.41725,0.26505 -7.41148,0.28092 -7.29021,0.0165 z"
         id="path705" /></g></g></svg>
